<?xml version="1.0" encoding="iso-8859-1"?>
<!-- Generator: Adobe Illustrator 21.0.0, SVG Export Plug-In . SVG Version: 6.00 Build 0)  -->
<svg version="1.1" id="Capa_1" xmlns="http://www.w3.org/2000/svg" xmlns:xlink="http://www.w3.org/1999/xlink" x="0px" y="0px"
	 viewBox="0 0 512 512" style="enable-background:new 0 0 512 512;" xml:space="preserve">
<circle style="fill:#C5DEEA;" cx="256" cy="256" r="256"/>
<path style="fill:#384E99;" d="M350.54,95.919v163.843H161.069V94.741c0-52.562,42.791-95.118,95.441-94.739
	C308.75,0.381,350.54,43.678,350.54,95.919z"/>
<path style="fill:#263E82;" d="M222.697,239.836c1.745,7.21,2.957,13.845,3.668,19.926h-65.296V94.741
	C161.069,42.413,203.482,0,255.81,0C214.213,0,189.584,103.226,222.697,239.836z"/>
<g>
	<path style="fill:#EFB691;" d="M154.638,491.154c-9.456-4.086-18.62-8.725-27.439-13.887c-5.831-3.385-11.515-7.022-17.053-10.867
		c-15.6-92.076,11.494-134.572,11.494-134.572l34.053-1.358l4.18,31.347c-2.069,4.211-3.835,8.61-5.329,13.134
		C140.981,415.963,149.476,467.602,154.638,491.154z"/>
	<path style="fill:#EFB691;" d="M401.85,466.41c-9.028,6.269-18.463,11.975-28.285,17.053c-5.298,2.748-10.71,5.319-16.217,7.701
		c5.747-26.143,15.579-86.935-5.224-129.348l8.37-36.571l29.863,6.583c0,0,2.435,3.824,5.423,11.672
		C402.77,361.785,412.769,401.951,401.85,466.41z"/>
</g>
<path style="fill:#1195B2;" d="M405.413,320.02l-53.29,41.796l-13.061-8.359v144.771c-26.039,8.923-53.979,13.772-83.059,13.772
	s-57.031-4.848-83.08-13.782v-144.76l-13.051,8.359l-23.594-18.505l-29.696-23.291l58.827-81.538
	c4.718-6.54,12.291-10.413,20.355-10.413h140.457c8.064,0,15.636,3.873,20.354,10.412L405.413,320.02z"/>
<path style="fill:#088196;" d="M229.494,228.069l-2.445,5.235c-54.126-5.235-67.176,36.561-105.409,98.523l-15.057-11.807
	l58.827-81.538c4.718-6.54,12.291-10.413,20.355-10.413L229.494,228.069L229.494,228.069z"/>
<path style="fill:#EFB691;" d="M255.997,262.261L255.997,262.261c-15.99,0-28.952-12.962-28.952-28.952v-33.371h57.904v33.371
	C284.948,249.299,271.986,262.261,255.997,262.261z"/>
<path style="fill:#FF5B47;" d="M197.974,400.505c0,0.798,0.007,1.596,0.022,2.39c1.389,75.241,114.616,75.241,116.005,0
	c0.015-0.795,0.022-1.591,0.022-2.39c0-44.713-23.106-84.025-58.024-106.661C221.08,316.479,197.974,355.791,197.974,400.505z"/>
<path style="fill:#FFFFFF;" d="M296.871,375.876h-19.336c-3.278,0-5.935-2.657-5.935-5.935v-19.336c0-3.278-2.657-5.935-5.935-5.935
	H246.33c-3.278,0-5.935,2.657-5.935,5.935v19.336c0,3.278-2.657,5.935-5.935,5.935h-19.336c-3.278,0-5.935,2.657-5.935,5.935v19.336
	c0,3.278,2.657,5.935,5.935,5.935h19.336c3.278,0,5.935,2.657,5.935,5.935v19.336c0,3.278,2.657,5.935,5.935,5.935h19.336
	c3.278,0,5.935-2.657,5.935-5.935v-19.336c0-3.278,2.657-5.935,5.935-5.935h19.336c3.278,0,5.935-2.657,5.935-5.935v-19.336
	C302.806,378.534,300.149,375.876,296.871,375.876z"/>
<path style="fill:#088196;" d="M184.156,342.214V501.78c-3.783-1.108-7.523-2.288-11.233-3.563v-144.76L184.156,342.214z"/>
<g>
	<path style="fill:#FFCDA8;" d="M154.638,491.154c-9.456-4.086-18.62-8.725-27.439-13.887c-11.24-36.308-6.091-76.087-1.332-98.809
		c1.945-9.285,12.576-13.752,20.58-8.659l8.097,5.151C140.981,415.963,149.476,467.602,154.638,491.154z"/>
	<path style="fill:#FFCDA8;" d="M401.85,466.41c-9.028,6.269-18.463,11.975-28.285,17.053c7.304-39.814,3.798-88.054,1.753-108.483
		c-0.635-6.348,1.625-12.643,6.136-17.154l14.327-14.327C402.77,361.785,412.769,401.951,401.85,466.41z"/>
</g>
<polygon style="fill:#088196;" points="339.062,353.457 339.062,325.245 365.3,351.482 352.124,361.816 "/>
<path style="fill:#E6E5E5;" d="M416.918,405.963v20.104c0,7.22-5.851,13.072-13.072,13.072h-36.143
	c-7.21,0-13.061-5.851-13.061-13.072v-20.104c0-7.21,5.851-13.061,13.061-13.061h36.143
	C411.066,392.902,416.918,398.753,416.918,405.963z"/>
<path style="fill:#FFFFFF;" d="M416.918,405.963v20.104c0,7.22-5.851,13.072-13.072,13.072h-10.021
	c-7.21,0-13.061-5.851-13.061-13.072v-20.104c0-7.21,5.851-13.061,13.061-13.061h10.021
	C411.066,392.902,416.918,398.753,416.918,405.963z"/>
<path style="fill:#EFB691;" d="M330.342,125.305v21.149c0,38.525-29.215,70.207-66.696,74.125c-2.57,0.272-5.193,0.408-7.837,0.408
	c-41.169,0-74.543-33.364-74.543-74.533v-21.149c0-41.159,33.374-74.533,74.543-74.533c2.644,0,5.266,0.136,7.837,0.408
	c17.46,1.818,33.113,9.665,44.868,21.42C321.993,86.09,330.342,104.731,330.342,125.305z"/>
<path style="fill:#FFCDA8;" d="M330.342,125.305v21.149c0,38.525-29.215,70.207-66.696,74.125
	c-37.491-3.918-66.706-35.6-66.706-74.125v-21.149c0-38.515,29.215-70.207,66.706-74.125c17.46,1.818,33.113,9.665,44.868,21.42
	C321.993,86.09,330.342,104.731,330.342,125.305z"/>
<g>
	<path style="fill:#332131;" d="M237.655,138.355c0-7.695-6.238-13.934-13.934-13.934c-7.695,0-13.934,6.238-13.934,13.934H237.655z
		"/>
	<path style="fill:#332131;" d="M301.516,138.355c0-7.695-6.238-13.934-13.934-13.934c-7.695,0-13.934,6.238-13.934,13.934H301.516z
		"/>
</g>
<polyline style="fill:#EFB691;" points="255.805,127.337 244.311,165.649 255.805,165.649 "/>
<path style="fill:#384E99;" d="M340.165,121.836c-72.453,0-118.429-41.796-118.429-41.796c0,7.398-6.019,16.29-14.075,23.552
	c-10.919,9.853-25.569,16.687-33.991,12.675l-2.09-22.288l17.418-36.927l26.133-6.593l48.4-12.215l59.914,23.688L340.165,121.836z"
	/>
<path style="fill:#263E82;" d="M215.132,50.459c-3.96,14.963-6.562,32.862-7.471,53.133c-10.919,9.853-25.569,16.687-33.991,12.675
	l-2.09-22.288l18.599-51.9L215.132,50.459z"/>
<path style="fill:#FFFFFF;" d="M226.399,174.779c0,16.346,13.251,29.598,29.598,29.598c16.346,0,29.598-13.251,29.598-29.598"/>
<g>
	<ellipse style="fill:#EFB691;" cx="299.04" cy="157.54" rx="13.845" ry="6.792"/>
	<ellipse style="fill:#EFB691;" cx="212.574" cy="157.54" rx="13.845" ry="6.792"/>
</g>
<g>
</g>
<g>
</g>
<g>
</g>
<g>
</g>
<g>
</g>
<g>
</g>
<g>
</g>
<g>
</g>
<g>
</g>
<g>
</g>
<g>
</g>
<g>
</g>
<g>
</g>
<g>
</g>
<g>
</g>
</svg>
