<?xml version="1.0" encoding="iso-8859-1"?>
<!-- Generator: Adobe Illustrator 21.0.0, SVG Export Plug-In . SVG Version: 6.00 Build 0)  -->
<svg version="1.1" id="Capa_1" xmlns="http://www.w3.org/2000/svg" xmlns:xlink="http://www.w3.org/1999/xlink" x="0px" y="0px"
	 viewBox="0 0 512 512" style="enable-background:new 0 0 512 512;" xml:space="preserve">
<path style="fill:#FFCDA8;" d="M512,256c0,110.748-70.321,205.07-168.75,240.743c-0.648,0.23-1.296,0.47-1.943,0.7
	c-6.207,2.194-12.528,4.159-18.954,5.872c-0.345,0.094-0.69,0.188-1.034,0.272c-13.354,3.511-27.146,5.977-41.273,7.293
	c-7.91,0.742-15.935,1.118-24.043,1.118c-1.891,0-3.772-0.021-5.653-0.063c-6.196-0.136-12.33-0.491-18.401-1.055
	c-14.116-1.317-27.909-3.783-41.263-7.293c-0.345-0.084-0.69-0.178-1.034-0.272c-6.426-1.714-12.748-3.678-18.954-5.872
	c-0.648-0.23-1.296-0.47-1.943-0.7C70.324,461.07,0.003,366.748,0.003,256c0-133.276,101.846-242.76,231.945-254.88
	c0.334-0.031,0.669-0.063,0.993-0.094c7.596-0.679,15.287-1.024,23.061-1.024s15.464,0.345,23.061,1.024
	c0.324,0.031,0.658,0.063,0.982,0.094C410.154,13.23,512,122.724,512,256z"/>
<g>
	<path style="fill:#FF5B47;" d="M330.088,413.016H181.914c-47.149,0-85.507-38.358-85.507-85.507v-15.154h20.898v15.154
		c0,35.626,28.983,64.609,64.609,64.609h148.174c35.626,0,64.609-28.983,64.609-64.609v-15.154h20.898v15.154
		C415.595,374.657,377.237,413.016,330.088,413.016z"/>
	<path style="fill:#FF5B47;" d="M341.306,497.442c-6.207,2.194-12.528,4.159-18.954,5.872c-0.345,0.094-0.69,0.188-1.034,0.272
		c-3.824-15.318-17.69-26.697-34.168-26.697h-62.296c-16.478,0-30.354,11.379-34.168,26.697c-0.345-0.084-0.69-0.178-1.034-0.272
		c-6.426-1.714-12.748-3.678-18.954-5.872c6.457-23.855,28.285-41.451,54.157-41.451h62.296
		C313.011,455.991,334.849,473.587,341.306,497.442z"/>
</g>
<path style="fill:#384E99;" d="M280.044,1.025V510.88c-7.91,0.742-15.935,1.118-24.043,1.118c-1.891,0-3.772-0.021-5.653-0.063
	c-6.196-0.136-12.33-0.491-18.401-1.055V1.025H280.044z"/>
<path style="fill:#263E82;" d="M250.348,1.025v510.91c-6.196-0.136-12.33-0.491-18.401-1.055V1.025H250.348z"/>
<path style="fill:#384E99;" d="M419.906,26.406H92.09c-7.291,0-13.201-5.911-13.201-13.201l0,0c0-7.291,5.911-13.201,13.201-13.201
	h327.815c7.291,0,13.201,5.911,13.201,13.201l0,0C433.107,20.495,427.196,26.406,419.906,26.406z"/>
<circle style="fill:#A4D8F2;" cx="106.85" cy="61.073" r="25.265"/>
<path style="fill:#FF5B47;" d="M116.76,0.002H96.946v47.984c0,5.472,4.436,9.908,9.908,9.908l0,0c5.472,0,9.908-4.436,9.908-9.908
	V0.002H116.76z"/>
<rect x="85.973" y="301.304" style="fill:#91C6E0;" width="41.763" height="27.24"/>
<g>
	<rect x="94.751" y="316.685" style="fill:#A4D8F2;" width="32.987" height="11.851"/>
	<path style="fill:#A4D8F2;" d="M181.923,307.651c-50.046,6.272-100.092,6.272-150.138,0c-14.638-1.835-26.03-13.656-27.398-28.345
		c-5.848-62.802-5.848-125.605,0-188.408c1.368-14.688,12.76-26.51,27.398-28.345c50.046-6.272,100.092-6.272,150.138,0
		c14.638,1.835,26.03,13.656,27.398,28.345c5.848,62.802,5.848,125.605,0,188.408C207.953,293.995,196.561,305.817,181.923,307.651z
		"/>
</g>
<path style="fill:#91C6E0;" d="M56.027,307.651c16.941,3.136,33.883,4.703,50.83,4.703c-25.027,0-50.049-1.567-75.07-4.703
	c-14.641-1.834-26.032-13.661-27.4-28.345c-5.847-62.802-5.847-125.61,0-188.412c1.368-14.69,12.759-26.511,27.4-28.345
	c25.021-3.136,50.043-4.703,75.07-4.703c-16.947,0-33.889,1.567-50.83,4.703c-9.908,1.834-17.625,13.655-18.551,28.345
	c-3.958,62.802-3.958,125.61,0,188.412C38.402,293.99,46.118,305.817,56.027,307.651z"/>
<path style="fill:#FF5B47;" d="M191.241,277.621c-0.575,6.192-5.447,11.246-11.578,12.014c-24.156,3.026-48.657,4.564-72.807,4.564
	c-22.316,0-44.917-1.313-67.281-3.897c-1.846-0.212-3.692-0.436-5.532-0.666c-6.131-0.769-10.997-5.822-11.578-12.014
	c-4.237-45.534-5.332-91.54-3.281-137.322l16.136-4.558l63.147-17.819l96.061,22.376
	C196.579,186.081,195.483,232.086,191.241,277.621z"/>
<path style="fill:#E53E2D;" d="M39.574,290.301c-1.846-0.212-3.692-0.436-5.532-0.666c-6.131-0.769-10.997-5.822-11.578-12.014
	c-4.237-45.534-5.332-91.54-3.281-137.322l16.136-4.558c-1.58,47.858-0.86,95.716,2.155,143.568
	C37.722,283.219,38.449,286.93,39.574,290.301z"/>
<path style="fill:#FC8980;" d="M164.877,277.623h-23.876c-6.443,0-11.666-5.223-11.666-11.666v-152.71
	c0-6.443,5.223-11.666,11.666-11.666h23.876c6.443,0,11.666,5.223,11.666,11.666v152.71
	C176.544,272.4,171.32,277.623,164.877,277.623z"/>
<path style="fill:#00A6F9;" d="M194.527,140.299H19.183c0.708-15.943,1.803-31.861,3.281-47.719
	c0.581-6.186,5.447-11.24,11.578-12.008c1.84-0.23,3.686-0.453,5.532-0.666c22.365-2.584,44.965-3.897,67.281-3.897
	c24.15,0,48.651,1.537,72.807,4.564c6.131,0.769,11.004,5.822,11.578,12.008C192.717,108.437,193.814,124.356,194.527,140.299z"/>
<path style="fill:#E7F5FC;" d="M176.545,113.25v27.049h-47.21V113.25c0-6.446,5.223-11.669,11.669-11.669h23.872
	C171.321,101.58,176.545,106.803,176.545,113.25z"/>
<g>
	<rect x="142.951" y="147.883" style="fill:#414142;" width="46.299" height="17.25"/>
	<rect x="142.951" y="187.819" style="fill:#414142;" width="46.299" height="17.25"/>
	<rect x="142.951" y="227.775" style="fill:#414142;" width="46.299" height="17.25"/>
</g>
<g>
	<rect x="142.951" y="147.883" style="fill:#5D5D5E;" width="33.593" height="17.25"/>
	<rect x="142.951" y="187.819" style="fill:#5D5D5E;" width="33.593" height="17.25"/>
	<rect x="142.951" y="227.775" style="fill:#5D5D5E;" width="33.593" height="17.25"/>
</g>
<path style="fill:#C5DEEA;" d="M39.574,79.905c-1.125,3.371-1.853,7.076-2.1,10.991c-1.035,16.47-1.803,32.932-2.294,49.401H19.183
	c0.708-15.943,1.803-31.861,3.281-47.719c0.581-6.186,5.447-11.24,11.578-12.008C35.882,80.341,37.729,80.117,39.574,79.905z"/>
<circle style="fill:#A4D8F2;" cx="408.375" cy="61.073" r="25.265"/>
<rect x="384.259" y="301.304" style="fill:#91C6E0;" width="41.763" height="27.24"/>
<g>
	<rect x="393.036" y="316.685" style="fill:#A4D8F2;" width="32.987" height="11.851"/>
	<path style="fill:#A4D8F2;" d="M480.212,307.651c-50.046,6.272-100.092,6.272-150.138,0c-14.638-1.835-26.03-13.656-27.398-28.345
		c-5.848-62.802-5.848-125.605,0-188.408c1.368-14.689,12.76-26.51,27.398-28.345c50.046-6.272,100.092-6.272,150.138,0
		c14.638,1.835,26.03,13.656,27.398,28.345c5.848,62.802,5.848,125.605,0,188.408C506.242,293.995,494.85,305.817,480.212,307.651z"
		/>
</g>
<path style="fill:#91C6E0;" d="M354.316,307.651c16.941,3.136,33.883,4.703,50.83,4.703c-25.027,0-50.049-1.567-75.07-4.703
	c-14.641-1.834-26.032-13.661-27.4-28.345c-5.847-62.802-5.847-125.61,0-188.412c1.368-14.69,12.759-26.511,27.4-28.345
	c25.022-3.136,50.043-4.703,75.07-4.703c-16.947,0-33.889,1.567-50.83,4.703c-9.908,1.834-17.625,13.655-18.551,28.345
	c-3.958,62.802-3.958,125.61,0,188.412C336.691,293.99,344.409,305.817,354.316,307.651z"/>
<path style="fill:#00A6F9;" d="M492.821,140.297c-0.714-15.943-1.81-31.861-3.286-47.719c-0.575-6.186-5.447-11.24-11.578-12.008
	c-24.156-3.026-48.656-4.564-72.807-4.564c-22.316,0-44.917,1.313-67.281,3.897c-1.846,0.212-3.693,0.436-5.532,0.666
	c-6.131,0.769-10.997,5.823-11.578,12.008c-1.476,15.858-2.573,31.776-3.281,47.719c-2.052,45.782-0.956,91.787,3.281,137.322
	c0.581,6.192,5.447,11.246,11.578,12.014c1.84,0.23,3.686,0.455,5.532,0.666c22.365,2.584,44.965,3.897,67.281,3.897
	c24.15,0,48.651-1.537,72.807-4.564c6.131-0.769,11.004-5.823,11.578-12.014C493.778,232.084,494.873,186.079,492.821,140.297z"/>
<path style="fill:#C5DEEA;" d="M333.553,137.981c0.492-15.696,1.229-31.389,2.215-47.086c0.249-3.916,0.975-7.62,2.1-10.991
	c-1.846,0.212-3.693,0.436-5.532,0.666c-6.131,0.769-10.997,5.823-11.578,12.008c-1.476,15.858-2.573,31.776-3.281,47.719
	c-2.052,45.782-0.956,91.787,3.281,137.322c0.581,6.192,5.447,11.246,11.578,12.014c1.84,0.23,3.686,0.455,5.532,0.666
	c-1.125-3.371-1.853-7.081-2.1-10.991C332.801,232.202,332.068,185.091,333.553,137.981z"/>
<path style="fill:#FF5B47;" d="M493.296,217.673c-0.648,20.031-1.902,40.03-3.762,59.945c-0.575,6.196-5.454,11.243-11.588,12.016
	c-24.147,3.03-48.65,4.566-72.798,4.566c-22.319,0-44.92-1.317-67.281-3.897c-1.849-0.219-3.699-0.439-5.538-0.669
	c-6.134-0.773-10.992-5.82-11.577-12.016c-1.849-19.916-3.103-39.915-3.751-59.945L493.296,217.673L493.296,217.673z"/>
<path style="fill:#E53E2D;" d="M337.869,290.304c-1.849-0.219-3.699-0.439-5.538-0.669c-6.134-0.773-10.992-5.82-11.577-12.016
	c-1.849-19.916-3.103-39.915-3.751-59.945h16.144c0.449,20.543,1.327,41.096,2.623,61.638
	C336.009,283.219,336.74,286.929,337.869,290.304z"/>
<path style="fill:#FC8980;" d="M474.509,110.52h-46.56c1.223-5.13,5.841-8.934,11.348-8.934h23.876
	C468.668,101.586,473.287,105.388,474.509,110.52z"/>
<path style="fill:#E7F5FC;" d="M463.167,277.624h-23.876c-6.443,0-11.666-5.223-11.666-11.666v-152.71
	c0-6.443,5.223-11.666,11.666-11.666h23.876c6.443,0,11.666,5.223,11.666,11.666v152.71
	C474.833,272.4,469.61,277.624,463.167,277.624z"/>
<path style="fill:#FC8980;" d="M474.833,217.673v48.284c0,6.447-5.224,11.661-11.661,11.661h-23.876
	c-6.447,0-11.671-5.214-11.671-11.661v-48.284L474.833,217.673L474.833,217.673z"/>
<g>
	<rect x="441.247" y="147.883" style="fill:#414142;" width="46.299" height="17.25"/>
	<rect x="441.247" y="187.819" style="fill:#414142;" width="46.299" height="17.25"/>
	<rect x="441.247" y="227.775" style="fill:#414142;" width="46.299" height="17.25"/>
</g>
<g>
	<rect x="441.247" y="147.883" style="fill:#5D5D5E;" width="33.593" height="17.25"/>
	<rect x="441.247" y="187.819" style="fill:#5D5D5E;" width="33.593" height="17.25"/>
	<rect x="441.247" y="227.775" style="fill:#5D5D5E;" width="33.593" height="17.25"/>
</g>
<path style="fill:#FF5B47;" d="M417.96,0.002h-19.814v47.984c0,5.472,4.436,9.908,9.908,9.908l0,0c5.472,0,9.908-4.436,9.908-9.908
	V0.002H417.96z"/>
<g>
</g>
<g>
</g>
<g>
</g>
<g>
</g>
<g>
</g>
<g>
</g>
<g>
</g>
<g>
</g>
<g>
</g>
<g>
</g>
<g>
</g>
<g>
</g>
<g>
</g>
<g>
</g>
<g>
</g>
</svg>
